<?xml version="1.0" encoding="UTF-8"?>
<svg id="Capa_1" data-name="Capa 1" xmlns="http://www.w3.org/2000/svg" viewBox="0 0 246.08 65.09">
  <defs>
    <style>
      .cls-1 {
        fill: #00b9d2;
      }

      .cls-2 {
        fill: #fff;
      }
    </style>
  </defs>
  <path class="cls-2" d="M.25.31h6.16c2.81,0,4.85.4,6.12,1.2s1.9,2.07,1.9,3.81c0,1.18-.28,2.15-.83,2.91s-1.29,1.22-2.22,1.37v.14c1.26.28,2.16.8,2.72,1.57.56.77.83,1.79.83,3.06,0,1.81-.65,3.22-1.96,4.23-1.31,1.01-3.08,1.52-5.32,1.52H.25V.31ZM4.45,8.16h2.44c1.14,0,1.96-.18,2.47-.53.51-.35.77-.94.77-1.75,0-.76-.28-1.3-.83-1.63-.56-.33-1.43-.49-2.64-.49h-2.21v4.4ZM4.45,11.49v5.16h2.74c1.16,0,2.01-.22,2.56-.66.55-.44.83-1.12.83-2.03,0-1.64-1.17-2.47-3.52-2.47h-2.6Z"/>
  <path class="cls-2" d="M21.67,20.12V.31h4.2v19.81h-4.2Z"/>
  <path class="cls-2" d="M45.04,20.12h-11.41V.31h11.41v3.44h-7.21v4.35h6.71v3.44h-6.71v5.11h7.21v3.47Z"/>
  <path class="cls-2" d="M69.52,20.12h-5.34l-8.62-14.99h-.12c.17,2.65.26,4.53.26,5.66v9.32h-3.75V.31h5.3l8.6,14.84h.09c-.14-2.57-.2-4.39-.2-5.46V.31h3.78v19.81Z"/>
  <path class="cls-2" d="M88.58.31h4.24l-6.73,19.81h-4.58L74.79.31h4.24l3.73,11.79c.21.7.42,1.51.64,2.43s.36,1.57.41,1.93c.1-.83.44-2.29,1.02-4.36l3.75-11.79Z"/>
  <path class="cls-2" d="M109.5,20.12h-11.41V.31h11.41v3.44h-7.21v4.35h6.71v3.44h-6.71v5.11h7.21v3.47Z"/>
  <path class="cls-2" d="M133.98,20.12h-5.34l-8.62-14.99h-.12c.17,2.65.26,4.53.26,5.66v9.32h-3.75V.31h5.3l8.6,14.84h.09c-.14-2.57-.2-4.39-.2-5.46V.31h3.78v19.81Z"/>
  <path class="cls-2" d="M141.74,20.12V.31h4.2v19.81h-4.2Z"/>
  <path class="cls-2" d="M170.14,10.03c0,3.26-.93,5.76-2.78,7.49-1.86,1.73-4.54,2.6-8.04,2.6h-5.61V.31h6.22c3.23,0,5.75.85,7.53,2.56,1.79,1.71,2.68,4.09,2.68,7.15ZM165.78,10.13c0-4.25-1.88-6.38-5.64-6.38h-2.24v12.9h1.8c4.05,0,6.07-2.17,6.07-6.52Z"/>
  <path class="cls-2" d="M195,10.19c0,3.28-.81,5.8-2.44,7.56s-3.96,2.64-6.99,2.64-5.37-.88-6.99-2.64c-1.62-1.76-2.44-4.29-2.44-7.59s.82-5.81,2.45-7.55c1.63-1.74,3.97-2.61,7.01-2.61s5.37.88,6.99,2.63c1.61,1.75,2.42,4.27,2.42,7.56ZM180.54,10.19c0,2.21.42,3.88,1.26,5,.84,1.12,2.09,1.68,3.77,1.68,3.35,0,5.03-2.23,5.03-6.68s-1.67-6.69-5-6.69c-1.67,0-2.93.56-3.78,1.69-.85,1.12-1.27,2.79-1.27,5.01Z"/>
  <path class="cls-2" d="M223.99,20.12l-1.44-4.72h-7.22l-1.44,4.72h-4.53L216.36.23h5.14l7.02,19.89h-4.53ZM221.55,11.88c-1.33-4.27-2.08-6.69-2.24-7.25s-.29-1-.36-1.33c-.3,1.16-1.15,4.02-2.56,8.58h5.16Z"/>
  <path class="cls-2" d="M233.78,20.12V.31h4.2v16.34h8.03v3.47h-12.23Z"/>
  <path class="cls-1" d="M10.13,64.57H0V26.49h22.5v8.26h-12.37v7.27h11.41v8.26h-11.41v14.3Z"/>
  <path class="cls-1" d="M67.8,26.49v22.92c0,4.98-1.41,8.84-4.23,11.58-2.82,2.73-6.89,4.1-12.2,4.1s-9.18-1.33-11.97-3.98c-2.79-2.66-4.18-6.48-4.18-11.46v-23.15h10.34v22.35c0,2.69.5,4.65,1.51,5.86,1.01,1.22,2.49,1.82,4.45,1.82,2.1,0,3.62-.6,4.57-1.81.95-1.21,1.42-3.18,1.42-5.93v-22.29h10.29Z"/>
  <path class="cls-1" d="M99.26,64.57h-10.29v-29.67h-9.3v-8.41h28.86v8.41h-9.27v29.67Z"/>
  <path class="cls-1" d="M153.02,26.49v22.92c0,4.98-1.41,8.84-4.23,11.58-2.82,2.73-6.89,4.1-12.2,4.1s-9.18-1.33-11.97-3.98c-2.79-2.66-4.18-6.48-4.18-11.46v-23.15h10.34v22.35c0,2.69.5,4.65,1.51,5.86,1.01,1.22,2.49,1.82,4.45,1.82,2.1,0,3.62-.6,4.57-1.81.95-1.21,1.42-3.18,1.42-5.93v-22.29h10.29Z"/>
  <path class="cls-1" d="M177.97,50.72v13.86h-10.29V26.49h12.48c10.35,0,15.52,3.75,15.52,11.25,0,4.41-2.15,7.82-6.46,10.24l11.1,16.59h-11.67l-8.07-13.86h-2.6ZM177.97,42.98h1.93c3.59,0,5.39-1.59,5.39-4.77,0-2.62-1.76-3.93-5.29-3.93h-2.03v8.7Z"/>
  <path class="cls-1" d="M246.08,45.48c0,6.41-1.57,11.28-4.71,14.61-3.14,3.33-7.75,5-13.8,5s-10.55-1.68-13.74-5.03c-3.19-3.35-4.78-8.23-4.78-14.64s1.58-11.18,4.75-14.52c3.17-3.34,7.77-5.01,13.82-5.01s10.65,1.66,13.78,4.97c3.13,3.32,4.69,8.19,4.69,14.61ZM219.88,45.48c0,7.36,2.56,11.04,7.68,11.04,2.6,0,4.54-.89,5.8-2.68,1.26-1.79,1.89-4.58,1.89-8.36s-.64-6.61-1.91-8.43c-1.28-1.81-3.18-2.72-5.72-2.72-5.16,0-7.74,3.72-7.74,11.15Z"/>
</svg>