<?xml version="1.0" encoding="UTF-8"?>
<svg id="Capa_1" data-name="Capa 1" xmlns="http://www.w3.org/2000/svg" viewBox="0 0 371.21 66.09">
  <defs>
    <style>
      .cls-1 {
        fill: #fff;
      }
    </style>
  </defs>
  <path class="cls-1" d="M124.32,14.03c-5.12,0-8.69,2.2-10.09,3.24v-2.43h-3.68v51.25h3.68v-17.06c1.2.72,4.11,2.15,8.19,2.15,10.22,0,17.36-7.92,17.36-19.27,0-10.69-6.21-17.88-15.45-17.88ZM122.63,47.72c-2.98,0-5.8-.81-8.39-2.41h-.02v-24.33s.05-.04.09-.08c2.82-2.31,6.08-3.49,9.71-3.49,7.14,0,11.94,5.74,11.94,14.27,0,9.76-5.24,16.05-13.33,16.05ZM160.44,14.03c-9.9,0-16.04,7.24-16.04,18.9s6.35,18.25,16.19,18.25c7.34,0,11.89-3.04,12.63-3.61l-1.88-3.21c-1.06.75-5.15,3.15-10.53,3.15-7.68,0-12.48-5.47-12.59-14.32h25.66c.09-.74.18-1.92.18-2.53,0-10.11-5.35-16.63-13.62-16.63ZM160.44,17.32c6.71,0,9.77,6.19,9.87,12.42h-21.92c.53-7.32,5.45-12.42,12.05-12.42ZM53.93,14.02c-10.26,0-15.8,7.18-15.8,18.65s5.58,18.65,15.8,18.65,15.72-7.45,15.72-18.65c0-11.98-5.99-18.65-15.72-18.65ZM53.93,48.03c-7.46,0-11.97-6.95-11.97-15.36s4.55-15.35,11.97-15.35c6.92,0,11.9,6.35,11.9,15.35s-4.8,15.36-11.9,15.36ZM89.9,14.02c-10.25,0-15.8,7.18-15.8,18.65s5.58,18.65,15.8,18.65,15.72-7.45,15.72-18.65c0-11.98-5.99-18.65-15.72-18.65ZM89.9,48.03c-7.46,0-11.98-6.95-11.98-15.36s4.56-15.35,11.98-15.35c6.92,0,11.9,6.35,11.9,15.35s-4.81,15.35-11.9,15.36ZM196.13,17.62c-.61-.07-1.4-.13-2.39-.13-3.13,0-7.36,1.22-10.53,6.88v26.16h-3.67V14.84h3.67v4.64c3.39-4.6,7.65-5.6,10.68-5.6,1.27,0,2.43.21,3.16.39l-.91,3.35ZM35.89,46.85c-.94.74-5.08,4.45-13.81,4.47-13.7.03-22.09-10.69-22.09-25.78S8.94,0,22.09,0c8.04,0,12.5,3.5,13.14,3.96l-1.77,3.21c-1.37-.97-5.42-3.36-11.01-3.36C11.29,3.82,4.12,12.27,3.87,25.05c-.25,13.39,7.11,22.46,18.57,22.46,3.02,0,7.12-.55,11.52-3.72l1.92,3.06ZM233.09.88h3.98l-17.37,49.65h-5.13L197.12.88h4.34l15.81,46.09L233.09.88ZM242.89,9.37c-1.44,0-2.6-1.18-2.6-2.6s1.14-2.53,2.6-2.53,2.53,1.12,2.53,2.53-1.12,2.6-2.53,2.6ZM241.06,14.84h3.66v35.69h-3.66V14.84ZM355.39,27.8v22.73h-3.68v-21.34c0-4.61,0-7.65-2.11-9.76-1.28-1.28-3.35-1.96-6-1.96-3.29,0-6.9,1.3-10.89,3.75v29.3h-3.67V14.84h3.67v2.72c1.5-.95,5.81-3.53,11.18-3.53,3.7,0,6.43.95,8.38,2.89,2.67,2.68,3.11,5.4,3.11,10.89ZM307.01,14.02c-10.25,0-15.79,7.18-15.79,18.65s5.57,18.65,15.79,18.65,15.72-7.45,15.72-18.65c0-11.98-5.98-18.65-15.72-18.65ZM307.01,48.02c-7.45,0-11.97-6.94-11.97-15.35s4.55-15.35,11.97-15.35c6.92,0,11.9,6.35,11.9,15.35s-4.8,15.35-11.9,15.35ZM274.43,40.86c0,6.45-4.86,10.47-12.67,10.47-7.17,0-11.24-3.05-11.66-3.35l1.79-3.1c1.13.78,4.9,3.07,9.58,3.07,5.72,0,9.14-2.54,9.14-6.8,0-2.56-1.57-5.09-6.13-6.76-.81-.3-4.67-1.69-5.63-2.04-5.64-2.06-7.26-5.28-7.26-9.18,0-5.38,4.69-9.14,11.41-9.14s9.87,2.54,10.44,2.89l-1.81,3.04c-.51-.37-3.97-2.65-8.33-2.65-3.84,0-7.98,1.81-7.98,5.78.01,3.35,2.54,5.05,5.41,6.07,1.05.38,3.29,1.19,4.45,1.61,6.76,2.43,9.24,5.59,9.24,10.09ZM282.9,9.37c-1.44,0-2.6-1.18-2.6-2.6s1.13-2.53,2.6-2.53,2.53,1.12,2.53,2.53-1.12,2.6-2.53,2.6ZM281.07,14.84h3.66v35.69h-3.66V14.84Z"/>
  <path class="cls-1" d="M365.66,16c-3.07,0-5.55-2.45-5.55-5.52s2.47-5.55,5.55-5.55,5.55,2.48,5.55,5.55-2.47,5.52-5.55,5.52ZM365.66,6.08c-2.47,0-4.41,1.92-4.41,4.39s1.94,4.36,4.41,4.36,4.42-1.89,4.42-4.36-1.94-4.39-4.42-4.39ZM367.17,13.45l-.75-1.56c-.43-.88-.5-.91-1.36-.91h-.28v2.47h-1.06v-6.08h1.49c.8,0,1.46.03,1.99.5.36.33.53.78.53,1.29,0,.65-.36,1.34-1.24,1.44.45,0,.7.5.83.78l.96,2.07h-1.11ZM365.26,8.33h-.48v1.69c.7,0,1.91.1,1.91-.91,0-.78-.85-.78-1.43-.78Z"/>
</svg>