<?xml version="1.0" encoding="UTF-8"?>
<svg id="Capa_1" data-name="Capa 1" xmlns="http://www.w3.org/2000/svg" viewBox="0 0 336.4 56.8">
  <defs>
    <style>
      .cls-1 {
        fill: #4e4e4f;
      }

      .cls-2 {
        fill: #fff;
      }
    </style>
  </defs>
  <path class="cls-1" d="M295.3,14.9c-2.2,4-3.4,8.6-3.4,13.5s1.2,9.5,3.4,13.5c3.6-3.4,5.8-8.2,5.8-13.5,0-5.3-2.2-10.1-5.8-13.5"/>
  <path class="cls-2" d="M308,0c-7.2,0-13.8,2.7-18.8,7.1,2.5,2.2,4.6,4.8,6.2,7.8,3.3-3.1,7.8-5,12.7-5,10.2,0,18.5,8.3,18.5,18.5s-8.3,18.5-18.5,18.5c-4.9,0-9.4-1.9-12.7-5-1.6,2.9-3.7,5.6-6.2,7.8,5,4.4,11.6,7.1,18.8,7.1,15.7,0,28.4-12.7,28.4-28.4S323.6,0,308,0"/>
  <polygon class="cls-2" points="202.2 7 214.8 7 196.5 37.3 196.5 49.7 185.8 49.7 185.8 37.3 167.4 7 179.9 7.1 191.1 25.2 202.2 7"/>
  <path class="cls-2" d="M23.6,7H0v42.7h24.2c13.7,0,16.3-8.8,16.3-21.2s-2.6-21.5-16.9-21.5M16.6,41.1h-5.5V15.6h5.5c9.7,0,13.3,2.4,13.3,12.8-.1,10.3-3.6,12.7-13.3,12.7"/>
  <path class="cls-2" d="M56.4,41.1v-8.8h25.2v-7.8h-25.2v-8.9h25.2V7h-29.4c-4,0-6.5,2-6.5,6.6v29.6c0,4.6,2.5,6.5,6.5,6.5h29.4v-8.6h-25.2Z"/>
  <path class="cls-2" d="M122.8,7l-12.1,29.8-12.1-29.8h-11.7l14.9,37.2c1.2,3,3.5,5.5,9,5.5s7.8-2.4,9-5.5l14.5-37.2h-11.5Z"/>
  <path class="cls-2" d="M150.3,41.1V7.1h-10.8v36.1c0,4.6,2.3,6.5,6.3,6.5h29.3v-8.6h-24.8Z"/>
  <path class="cls-2" d="M253,7v27.3l-16.9-24.7c-2.2-2.9-6.6-2.6-8.2-2.6-4.1,0-7.8.8-7.9,6.2v36.4l10.5-.1.3-28.2,17.3,24.9c2.3,3.4,4.9,3.4,7.8,3.4,6.2,0,7.8-3.4,7.8-6.3V7h-10.7Z"/>
</svg>