<?xml version="1.0" encoding="UTF-8"?>
<svg id="Capa_1" data-name="Capa 1" xmlns="http://www.w3.org/2000/svg" viewBox="0 0 386.06 77.42">
  <defs>
    <style>
      .cls-1 {
        fill: #00b9d2;
      }

      .cls-2 {
        fill: #40398b;
      }
    </style>
  </defs>
  <rect class="cls-1" width="386.06" height="77.42"/>
  <g>
    <path class="cls-2" d="M17.63,33.58V10.73h6.17v17.86h8.8v4.98h-14.97Z"/>
    <path class="cls-2" d="M55.36,10.73v13.75c0,2.99-.85,5.3-2.54,6.95-1.69,1.64-4.13,2.46-7.32,2.46s-5.51-.8-7.18-2.39-2.51-3.89-2.51-6.88v-13.89h6.2v13.41c0,1.61.3,2.79.91,3.52.6.73,1.49,1.09,2.67,1.09,1.26,0,2.17-.36,2.74-1.09.57-.72.85-1.91.85-3.55v-13.38h6.17Z"/>
    <path class="cls-2" d="M81.91,33.58h-8.09l-8.34-16.09h-.14c.2,2.53.3,4.46.3,5.8v10.3h-5.47V10.73h8.06l8.31,15.88h.09c-.15-2.3-.22-4.15-.22-5.55v-10.33h5.5v22.84Z"/>
    <path class="cls-2" d="M100.41,33.58h-13.56V10.73h13.56v4.95h-7.39v3.59h6.84v4.95h-6.84v4.31h7.39v5.03Z"/>
    <path class="cls-2" d="M119.35,26.64c0,1.42-.36,2.67-1.08,3.77-.72,1.1-1.76,1.95-3.11,2.56-1.35.61-2.94.91-4.77.91-1.52,0-2.8-.11-3.83-.32s-2.1-.59-3.22-1.12v-5.5c1.18.6,2.4,1.08,3.67,1.41,1.27.34,2.44.51,3.5.51.92,0,1.59-.16,2.02-.48.43-.32.64-.73.64-1.23,0-.31-.09-.59-.26-.82s-.45-.47-.83-.71c-.38-.24-1.39-.73-3.04-1.47-1.49-.68-2.61-1.33-3.35-1.97-.75-.64-1.3-1.36-1.66-2.19-.36-.82-.54-1.8-.54-2.92,0-2.1.77-3.74,2.3-4.92,1.53-1.18,3.64-1.77,6.31-1.77,2.36,0,4.78.55,7.23,1.64l-1.89,4.77c-2.14-.98-3.98-1.47-5.53-1.47-.8,0-1.39.14-1.75.42-.36.28-.55.63-.55,1.05,0,.45.23.85.7,1.2.46.35,1.72,1,3.77,1.94,1.97.89,3.34,1.84,4.1,2.85s1.15,2.29,1.15,3.84Z"/>
    <path class="cls-2" d="M143.44,33.58h-6.27v-12.09c0-1.47.03-2.81.09-4.03-.39.47-.86.96-1.44,1.47l-2.59,2.14-3.2-3.94,7.84-6.39h5.56v22.84Z"/>
    <path class="cls-2" d="M165.74,29.16h-2.52v4.42h-6.09v-4.42h-9.11v-4.53l9.5-13.89h5.7v13.81h2.52v4.61ZM157.13,24.55v-2.66c0-.5.02-1.17.05-2.02.04-.85.06-1.29.09-1.34h-.17c-.35.8-.76,1.55-1.2,2.25l-2.53,3.77h3.77Z"/>
    <path class="cls-2" d="M196.4,21.67c0,3.81-1.05,6.75-3.15,8.81-2.1,2.06-5.05,3.09-8.85,3.09h-7.39V10.73h7.91c3.67,0,6.5.94,8.49,2.81,1.99,1.88,2.99,4.58,2.99,8.12ZM189.99,21.89c0-2.09-.41-3.65-1.24-4.66-.83-1.01-2.09-1.52-3.77-1.52h-1.8v12.8h1.38c1.88,0,3.25-.54,4.12-1.63.88-1.09,1.31-2.75,1.31-4.99Z"/>
    <path class="cls-2" d="M214.05,33.58h-13.56V10.73h13.56v4.95h-7.39v3.59h6.84v4.95h-6.84v4.31h7.39v5.03Z"/>
    <path class="cls-2" d="M224.57,40.75c-1.12,0-2.19-.11-3.2-.33v-4.8c.33.06.69.13,1.06.21s.78.12,1.22.12c1.02,0,1.75-.31,2.19-.92.44-.61.66-1.67.66-3.16V10.73h6.2v20.61c0,3.09-.68,5.43-2.03,7.02-1.35,1.59-3.39,2.38-6.09,2.38Z"/>
    <path class="cls-2" d="M257.05,10.73v13.75c0,2.99-.85,5.3-2.54,6.95-1.69,1.64-4.13,2.46-7.32,2.46s-5.51-.8-7.18-2.39-2.51-3.89-2.51-6.88v-13.89h6.2v13.41c0,1.61.3,2.79.91,3.52.6.73,1.49,1.09,2.67,1.09,1.26,0,2.17-.36,2.74-1.09.57-.72.85-1.91.85-3.55v-13.38h6.17Z"/>
    <path class="cls-2" d="M261.85,33.58V10.73h6.17v17.86h8.8v4.98h-14.97Z"/>
    <path class="cls-2" d="M280.47,33.58V10.73h6.2v22.84h-6.2Z"/>
    <path class="cls-2" d="M312.99,22.13c0,3.84-.94,6.77-2.83,8.77s-4.65,3-8.28,3-6.33-1-8.24-3.02c-1.91-2.01-2.87-4.94-2.87-8.78s.95-6.71,2.85-8.71c1.9-2,4.66-3.01,8.29-3.01s6.39,1,8.27,2.98c1.88,1.99,2.81,4.91,2.81,8.77ZM297.27,22.13c0,4.42,1.54,6.62,4.61,6.62,1.56,0,2.72-.54,3.48-1.61.75-1.07,1.13-2.74,1.13-5.02s-.38-3.97-1.15-5.05c-.77-1.09-1.91-1.63-3.43-1.63-3.09,0-4.64,2.23-4.64,6.69Z"/>
    <path class="cls-2" d="M32.86,51.19c0,4.47-.96,7.7-2.89,9.7-1.93,2-5.01,3-9.25,3-1.4,0-2.46-.05-3.19-.16v-4.89c.9.17,1.79.25,2.69.25,2.21,0,3.91-.46,5.11-1.37,1.2-.91,1.85-2.35,1.95-4.32h-.19c-.41.75-.81,1.29-1.2,1.62-.4.33-.88.59-1.45.77-.57.18-1.29.27-2.14.27-1.98,0-3.53-.66-4.64-1.98-1.11-1.32-1.67-3.15-1.67-5.47,0-2.53.72-4.52,2.16-5.95,1.44-1.44,3.42-2.16,5.93-2.16,2.79,0,4.95.93,6.48,2.78,1.53,1.85,2.3,4.49,2.3,7.91ZM24.26,45.44c-.68,0-1.23.25-1.65.73-.42.49-.63,1.28-.63,2.36,0,.85.18,1.53.55,2.04.36.51.92.76,1.67.76.68,0,1.27-.24,1.77-.73.5-.49.75-1.08.75-1.77,0-.93-.23-1.72-.7-2.39-.46-.67-1.05-1-1.76-1Z"/>
    <path class="cls-2" d="M35.26,48.64c0-.95.29-1.68.86-2.2.57-.52,1.4-.78,2.47-.78s1.82.26,2.38.78c.55.52.83,1.26.83,2.2s-.28,1.67-.84,2.2-1.35.8-2.36.8c-1.06,0-1.88-.27-2.46-.8s-.87-1.27-.87-2.2ZM35.26,60.98c0-.96.28-1.7.85-2.22.57-.52,1.39-.78,2.48-.78s1.82.26,2.38.78c.55.52.83,1.26.83,2.22s-.28,1.67-.85,2.2c-.57.53-1.35.79-2.35.79s-1.84-.26-2.44-.78-.89-1.25-.89-2.2Z"/>
    <path class="cls-2" d="M60.79,52.19c0,4.04-.68,7-2.03,8.88-1.35,1.88-3.43,2.82-6.22,2.82s-4.79-.98-6.17-2.95c-1.39-1.96-2.08-4.88-2.08-8.76s.68-7.04,2.03-8.94c1.35-1.9,3.43-2.84,6.22-2.84s4.77.99,6.16,2.96c1.39,1.97,2.09,4.91,2.09,8.82ZM50.43,52.19c0,2.58.16,4.36.48,5.33.32.97.86,1.45,1.62,1.45s1.31-.5,1.63-1.5c.32-1,.48-2.76.48-5.28s-.16-4.3-.48-5.32c-.32-1.02-.86-1.52-1.62-1.52s-1.3.49-1.62,1.47c-.32.98-.48,2.77-.48,5.38Z"/>
    <path class="cls-2" d="M79.54,52.19c0,4.04-.68,7-2.03,8.88-1.35,1.88-3.43,2.82-6.22,2.82s-4.79-.98-6.17-2.95c-1.39-1.96-2.08-4.88-2.08-8.76s.68-7.04,2.03-8.94c1.35-1.9,3.43-2.84,6.22-2.84s4.77.99,6.16,2.96c1.39,1.97,2.09,4.91,2.09,8.82ZM69.18,52.19c0,2.58.16,4.36.48,5.33.32.97.86,1.45,1.62,1.45s1.31-.5,1.63-1.5c.32-1,.48-2.76.48-5.28s-.16-4.3-.48-5.32c-.32-1.02-.86-1.52-1.62-1.52s-1.3.49-1.62,1.47c-.32.98-.48,2.77-.48,5.38Z"/>
    <path class="cls-2" d="M105.46,63.58l-1.12-4.28h-7.42l-1.16,4.28h-6.78l7.45-22.94h8.23l7.55,22.94h-6.75ZM103.05,54.23l-.98-3.75c-.23-.83-.51-1.91-.84-3.23-.33-1.32-.54-2.27-.65-2.84-.09.53-.28,1.41-.55,2.62-.28,1.22-.89,3.62-1.84,7.2h4.86Z"/>
    <path class="cls-2" d="M124.63,63.58l-4.67-16.45h-.14c.22,2.8.33,4.98.33,6.53v9.92h-5.47v-22.84h8.22l4.77,16.22h.12l4.67-16.22h8.23v22.84h-5.67v-10.02c0-.52,0-1.1.02-1.73.02-.64.09-2.19.21-4.67h-.14l-4.61,16.42h-5.88Z"/>
  </g>
</svg>